<svg width="304" height="331" viewBox="0 0 304 331" fill="none" xmlns="http://www.w3.org/2000/svg">
<path d="M175.616 119.354V140.354H220.116V122.354C215.283 123.187 204.916 124.854 202.116 124.854C198.616 124.854 178.116 120.854 175.616 119.354Z" fill="#CA1828"/>
<path d="M243.617 142.854V121.354L264.617 117.854L265.617 134.354L262.117 142.854H243.617Z" fill="#CA1828"/>
<path d="M122.617 53.8536C125.783 50.5203 133.117 44.3536 137.117 46.3536C136.617 45.1869 134.517 42.7536 130.117 42.3536C125.717 41.9536 123.283 49.8536 122.617 53.8536Z" fill="white"/>
<path d="M142.117 58.8536L136.117 64.3536C135.95 61.8536 136.617 56.1536 140.617 53.3536C144.617 50.5536 148.283 55.5203 149.617 58.3536C155.749 65.8536 166.436 86.2536 160.117 107.854C159.283 109.02 156.515 110.432 156.617 106.354C157.117 86.3536 148.617 65.3536 142.117 58.8536Z" fill="white"/>
<path d="M85.1166 42.3536H89.1166C90.1166 47.3536 91.1166 56.0536 89.1166 60.8536C86.6166 66.8536 78.1166 72.3536 77.1166 66.8536L84.1166 62.3536L75.6166 62.8536C78.4499 60.5203 83.1166 55.3536 84.1166 52.3536C85.011 49.6703 86.1166 45.3536 85.1166 42.3536Z" fill="#CA1828"/>
<path d="M58.1166 39.8536C59.9499 40.1869 64.0974 40.642 66.1166 40.3536C69.6166 39.8536 73.6166 34.6869 76.1166 32.8536L81.1166 42.3536C80.9499 45.0203 79.3166 50.7536 74.1166 52.3536C73.2832 52.5203 71.7166 52.1536 72.1166 49.3536C73.4499 49.0203 76.3166 47.7536 77.1166 45.3536L76.1166 40.3536C75.2832 42.1869 71.6676 47.8536 63.1166 47.8536C58.1166 47.8536 58.1166 41.8536 58.1166 39.8536Z" fill="#CA1828"/>
<path fill-rule="evenodd" clip-rule="evenodd" d="M75.6167 103.853L69.1167 143.354C44.7169 144.953 40.2832 150.354 41.1163 152.854L47.6163 156.854H67.6163L81.1163 151.354V144.854L95.1163 100.854L96.1163 81.8536L122.616 93.8536C125.416 101.854 138.783 108.187 145.116 110.354L155.116 144.854C138.616 144.854 127.616 149.354 126.116 152.854C124.916 155.654 128.283 157.687 130.116 158.354H159.116L169.116 152.854L167.116 111.854L187.116 115.354H222.116L227.116 116.854L228.616 122.354V135.854L224.116 142.854L184.616 149.354C180.45 151.187 176.516 155.054 194.116 155.854C211.716 156.654 262.45 149.52 285.616 145.854L283.116 141.354V112.854L242.116 99.8536H222.616H203.116L195.616 96.3536C192.616 68.8536 177.116 69.8536 158.616 64.8536C142.116 30.3536 119.116 27.8536 96.1163 34.3536L91.1163 26.8535C93.1163 12.8535 75.1163 -3.1465 56.1167 9.3535C38.5167 28.9535 46.7833 35.8535 53.1167 36.8535C53.5167 50.8535 66.95 66.6868 73.6167 72.8535L75.6167 103.853ZM243.617 121.354V142.854H262.117L265.617 134.354L264.617 117.854L243.617 121.354ZM66.1166 40.3536C64.0974 40.642 59.9499 40.1869 58.1166 39.8536C58.1166 41.8536 58.1166 47.8536 63.1166 47.8536C71.6676 47.8536 75.2832 42.1869 76.1166 40.3536L77.1166 45.3536C76.3166 47.7536 73.4499 49.0203 72.1166 49.3536C71.7166 52.1536 73.2832 52.5203 74.1166 52.3536C79.3166 50.7536 80.9499 45.0203 81.1166 42.3536L76.1166 32.8536C73.6166 34.6869 69.6166 39.8536 66.1166 40.3536ZM89.1166 42.3536H85.1166C86.1166 45.3536 85.011 49.6703 84.1166 52.3536C83.1166 55.3536 78.4499 60.5203 75.6166 62.8536L84.1166 62.3536L77.1166 66.8536C78.1166 72.3536 86.6166 66.8536 89.1166 60.8536C91.1166 56.0536 90.1166 47.3536 89.1166 42.3536ZM137.117 46.3536C133.117 44.3536 125.783 50.5203 122.617 53.8536C123.283 49.8536 125.717 41.9536 130.117 42.3536C134.517 42.7536 136.617 45.1869 137.117 46.3536ZM136.117 64.3536L142.117 58.8536C148.617 65.3536 157.117 86.3536 156.617 106.354C156.515 110.432 159.283 109.02 160.117 107.854C166.436 86.2536 155.749 65.8536 149.617 58.3536C148.283 55.5203 144.617 50.5536 140.617 53.3536C136.617 56.1536 135.95 61.8536 136.117 64.3536Z" fill="black"/>
<path d="M174 29V21H182V29H190V37H182V45H174V37H166V29H174Z" fill="black"/>
<path fill-rule="evenodd" clip-rule="evenodd" d="M95.1163 9.3535C95.9496 13.8536 98.2162 23.2537 100.616 24.8536C101.159 25.2156 103.111 25.1517 106.027 25.0562C119.22 24.6242 152.15 23.5461 163.616 58.3536C173.95 58.8536 195.617 63.6536 199.617 78.8536C205.783 80.1869 219.316 84.5536 224.116 91.3536H244.616L273.616 100.854C263.616 54.8535 213.916 -27.8466 95.1163 9.3535ZM174 29V21H182V29H190V37H182V45H174V37H166V29H174ZM234 48H222V60H210V72H222V84H234V72H246V60H234V48Z" fill="#CA1828"/>
<path d="M222 48H234V60H246V72H234V84H222V72H210V60H222V48Z" fill="black"/>
<path fill-rule="evenodd" clip-rule="evenodd" d="M65.6166 75.3536C61.6166 72.5536 51.2832 58.8536 46.6166 52.3536C21.0166 77.1536 17.2832 122.354 18.6166 141.854H45.6166L63.1166 136.354L69.1167 100.854L65.6166 75.3536ZM61 104V110H55V116H49V110H43V104H49V98H55V104H61Z" fill="#CA1828"/>
<path d="M61 110V104H55V98H49V104H43V110H49V116H55V110H61Z" fill="black"/>
<path fill-rule="evenodd" clip-rule="evenodd" d="M147.616 140.354H90.1162L101.616 103.853L102.616 91.8535L118.616 99.8536L122.616 107.854L140.116 116.854L147.616 140.354ZM116 122H112V126H108V130H112V134H116V130H120V126H116V122Z" fill="#CA1828"/>
<path d="M112 122H116V126H120V130H116V134H112V130H108V126H112V122Z" fill="black"/>
<path d="M48.53 260.354H34.88C31.9333 260.354 29.9833 259.877 29.03 258.924C28.1633 257.97 27.73 255.977 27.73 252.944V173.774C27.73 170.74 28.1633 168.747 29.03 167.794C29.9833 166.84 31.9333 166.364 34.88 166.364H48.53V260.354ZM88.7 242.154V253.204C88.7 256.15 88.2233 258.1 87.27 259.054C86.3167 259.92 84.3233 260.354 81.29 260.354H53.73V242.154H88.7ZM80.9 203.804V211.604C80.9 214.724 80.5967 216.717 79.99 217.584C79.3833 218.364 77.65 218.754 74.79 218.754H53.73V203.804H80.9ZM87.4 166.364V177.414C87.4 180.36 86.9233 182.31 85.97 183.264C85.0167 184.13 83.0233 184.564 79.99 184.564H53.73V166.364H87.4ZM110.163 166.364C113.11 166.364 115.103 166.84 116.143 167.794C117.27 168.747 118.05 170.74 118.483 173.774L127.063 242.934C127.323 245.014 127.887 246.357 128.753 246.964C129.62 247.57 131.007 247.917 132.913 248.004L132.783 260.354H127.063C119.437 260.354 114.41 258.49 111.983 254.764C110.683 252.77 109.773 250.82 109.253 248.914C108.733 246.92 108.257 244.147 107.823 240.594L97.6832 166.364H110.163ZM144.093 260.354H136.033L150.203 173.774C150.55 170.827 151.287 168.877 152.413 167.924C153.54 166.884 155.577 166.364 158.523 166.364H170.873L157.873 243.194C157.267 246.487 156.747 248.914 156.313 250.474C155.967 252.034 155.317 253.724 154.363 255.544C153.41 257.364 152.11 258.62 150.463 259.314C148.817 260.007 146.693 260.354 144.093 260.354ZM203.413 260.354H189.763C186.816 260.354 184.866 259.877 183.913 258.924C183.046 257.97 182.613 255.977 182.613 252.944V173.774C182.613 170.74 183.046 168.747 183.913 167.794C184.866 166.84 186.816 166.364 189.763 166.364H203.413V260.354ZM262.788 232.014H280.988C281.942 232.014 282.418 232.62 282.418 233.834V256.714C282.418 259.14 281.205 260.354 278.778 260.354H247.318V248.004H259.408C260.795 248.004 261.488 247.874 261.488 247.614C261.575 247.267 261.618 246.877 261.618 246.444V233.444C261.618 232.75 261.705 232.36 261.878 232.274C262.052 232.1 262.355 232.014 262.788 232.014ZM242.768 260.354H229.118C226.172 260.354 224.222 259.877 223.268 258.924C222.402 257.97 221.968 255.977 221.968 252.944V173.774C221.968 170.74 222.402 168.747 223.268 167.794C224.222 166.84 226.172 166.364 229.118 166.364H242.768V260.354Z" fill="black"/>
<path d="M2.4 279.354H15.7C17.8 280.054 19.5833 281.354 21.05 283.254C22.55 285.12 23.3 287.42 23.3 290.154C23.3 294.62 21.5333 297.904 18 300.004L23.05 314.354H16.05L11.8 301.604H9.15V314.354H2.4V279.354ZM9.15 285.354V296.004H13.45C14.0167 295.87 14.6333 295.304 15.3 294.304C16 293.27 16.35 292.07 16.35 290.704C16.35 289.337 16.05 288.137 15.45 287.104C14.8833 286.07 14.3167 285.487 13.75 285.354H9.15ZM35.0234 314.354H29.7734C28.3068 312.487 27.3068 310.62 26.7734 308.754C26.2401 306.887 25.9734 304.554 25.9734 301.754V288.804H32.6234V302.254C32.6234 305.287 33.2234 307.57 34.4234 309.104H39.0734V288.804H45.7234V314.354H40.4734L39.5734 312.554C38.3068 313.754 36.7901 314.354 35.0234 314.354ZM52.5016 288.804H63.5516V294.054H55.7516L60.5016 301.104C62.6349 304.137 63.8182 306.22 64.0516 307.354C64.1849 307.887 64.2516 308.437 64.2516 309.004C64.2516 311.37 63.3682 313.154 61.6016 314.354H48.8516V309.104H58.0016L52.6516 301.254C52.4182 300.887 52.0516 300.37 51.5516 299.704C51.0849 299.037 50.7182 298.504 50.4516 298.104C50.1849 297.67 50.0016 297.354 49.9016 297.154C49.8016 296.954 49.6682 296.704 49.5016 296.404C49.3349 296.07 49.2182 295.787 49.1516 295.554C49.0182 294.92 48.9516 294.404 48.9516 294.004C48.9516 291.57 50.1349 289.837 52.5016 288.804ZM69.982 288.804H81.032V294.054H73.232L77.982 301.104C80.1154 304.137 81.2987 306.22 81.532 307.354C81.6654 307.887 81.732 308.437 81.732 309.004C81.732 311.37 80.8487 313.154 79.082 314.354H66.332V309.104H75.482L70.132 301.254C69.8987 300.887 69.532 300.37 69.032 299.704C68.5654 299.037 68.1987 298.504 67.932 298.104C67.6654 297.67 67.482 297.354 67.382 297.154C67.282 296.954 67.1487 296.704 66.982 296.404C66.8154 296.07 66.6987 295.787 66.632 295.554C66.4987 294.92 66.432 294.404 66.432 294.004C66.432 291.57 67.6154 289.837 69.982 288.804ZM84.9625 314.354V288.804H91.5625V314.354H84.9625ZM84.9625 279.354H91.5625V286.104H84.9625V279.354ZM107.901 302.804H102.551C101.851 303.67 101.501 304.754 101.501 306.054C101.501 307.354 101.868 308.37 102.601 309.104H107.901V302.804ZM97.1512 288.804H109.551C111.551 290.004 112.868 291.387 113.501 292.954C114.135 294.487 114.451 296.587 114.451 299.254V306.754C114.451 309.52 114.518 312.054 114.651 314.354H108.951L108.051 312.554C106.751 313.754 104.918 314.354 102.551 314.354H99.4012C96.5678 312.487 95.1512 309.804 95.1512 306.304C95.1512 302.77 96.6012 299.987 99.5012 297.954H104.201C105.501 297.954 106.718 298.354 107.851 299.154V296.654C107.851 295.354 107.285 294.487 106.151 294.054H97.1512V288.804ZM129.852 288.804H135.152C136.618 290.67 137.618 292.537 138.152 294.404C138.685 296.27 138.952 298.604 138.952 301.404V314.354H132.302V300.904C132.302 297.737 131.868 295.454 131.002 294.054H125.402V314.354H118.752V288.804H123.952L124.852 290.604C125.585 289.937 126.268 289.47 126.902 289.204C127.568 288.937 128.552 288.804 129.852 288.804ZM168.576 314.354L165.076 293.704H164.876L161.276 314.354H154.276L149.426 279.354H156.126L157.526 289.654L158.576 301.254H158.826L160.676 289.704L162.226 279.354H167.876L169.376 289.704L171.276 301.254H171.526L172.526 289.654L173.926 279.354H180.626L175.776 314.354H168.576ZM197.477 314.354H186.577C183.244 311.254 181.577 307.02 181.577 301.654C181.577 298.954 181.944 296.604 182.677 294.604C183.444 292.604 184.644 290.67 186.277 288.804H197.977C199.71 290.804 200.894 292.754 201.527 294.654C202.16 296.52 202.477 298.854 202.477 301.654C202.477 307.02 200.81 311.254 197.477 314.354ZM190.127 309.104H193.927C195.127 306.77 195.727 304.12 195.727 301.154C195.727 298.187 195.11 295.82 193.877 294.054H190.127C188.927 295.754 188.327 298.17 188.327 301.304C188.327 304.404 188.927 307.004 190.127 309.104ZM206.106 314.354V288.804H210.856L212.106 291.504C213.44 289.704 215.123 288.804 217.156 288.804H219.106V295.504H212.756V314.354H206.106ZM221.974 314.354V279.354H228.624V297.904H229.324L234.024 288.804H240.524L234.624 299.954L240.574 314.354H233.974L229.374 303.154H228.624V314.354H221.974ZM257.194 314.354H246.294C242.96 311.254 241.294 307.02 241.294 301.654C241.294 298.954 241.66 296.604 242.394 294.604C243.16 292.604 244.36 290.67 245.994 288.804H257.694C259.427 290.804 260.61 292.754 261.244 294.654C261.877 296.52 262.194 298.854 262.194 301.654C262.194 307.02 260.527 311.254 257.194 314.354ZM249.844 309.104H253.644C254.844 306.77 255.444 304.12 255.444 301.154C255.444 298.187 254.827 295.82 253.594 294.054H249.844C248.644 295.754 248.044 298.17 248.044 301.304C248.044 304.404 248.644 307.004 249.844 309.104ZM274.623 314.354H269.373C267.906 312.487 266.906 310.62 266.373 308.754C265.84 306.887 265.573 304.554 265.573 301.754V288.804H272.223V302.254C272.223 305.287 272.823 307.57 274.023 309.104H278.673V288.804H285.323V314.354H280.073L279.173 312.554C277.906 313.754 276.39 314.354 274.623 314.354ZM291.101 303.204V294.054H287.651V288.804H291.101V281.854H297.751V288.804H301.851V294.054H297.751V304.804C297.751 306.837 298.101 308.27 298.801 309.104H301.851V314.354H294.751C292.985 312.72 291.918 310.954 291.551 309.054C291.251 307.454 291.101 305.504 291.101 303.204Z" fill="black"/>
</svg>
