<svg width="205" height="186" viewBox="0 0 205 186" fill="none" xmlns="http://www.w3.org/2000/svg">
<path d="M71.9289 0.714076C71.5289 1.38074 73.3956 3.38074 76.1956 5.38074C82.5956 9.91407 87.5289 16.1807 89.6622 23.1141C91.3956 28.1807 91.2622 29.2474 88.3289 36.4474C86.5956 40.7141 85.4711 43.3859 85 44.5C84.7289 45.1411 84.7711 45.3193 84.5 46C84.2711 46.8193 83.5289 48.5807 83.3956 51.5141C82.8622 59.5141 87.2622 66.1807 99.9289 76.1807C114.462 87.6474 123.129 99.9141 121.929 107.114C121.796 108.314 123.662 108.847 128.062 108.847H134.462V100.314C134.462 92.5807 134.862 91.2474 138.329 87.6474C144.196 81.5141 151.662 79.2474 163.796 79.7807L174.062 80.1807L173.529 71.2474C172.862 62.1807 168.729 52.9807 163.662 48.7141C161.529 46.9807 161.396 47.2474 162.196 52.5807C163.796 62.3141 159.396 68.9807 151.129 69.5141C147.796 69.6474 141.929 66.3141 140.329 63.2474C138.596 59.9141 139.796 48.5807 142.329 44.3141C144.862 40.1807 144.996 28.4474 142.596 23.9141C137.929 15.5141 131.129 10.4474 133.129 17.1141C135.262 23.6474 133.929 30.1807 128.862 38.3141C126.062 42.7141 122.996 47.6474 122.196 49.2474C120.062 52.8474 120.062 59.1141 121.929 64.5807C122.729 66.8474 123.129 70.0474 122.862 71.7807C122.462 74.4474 121.796 73.7807 118.862 68.0474C115.796 62.1807 115.396 60.1807 116.062 52.7141C117.262 37.1141 116.862 30.8474 114.062 25.2474C110.196 17.7807 99.9289 8.04741 91.9289 4.31407C84.7289 0.847408 72.9956 -1.15259 71.9289 0.714076ZM101.262 15.6474C103.662 17.9141 106.996 22.5807 108.996 26.0474C112.196 32.0474 112.329 33.5141 112.196 48.3141C111.929 65.3807 113.396 71.1141 119.262 74.3141C121.662 75.5141 122.596 75.2474 124.729 73.2474C126.996 70.8474 127.129 69.7807 126.062 63.5141C124.462 54.8474 125.262 52.0474 132.862 39.7807C140.862 26.8474 142.862 30.7141 136.862 47.1141C133.662 55.9141 135.129 64.5807 140.462 69.1141C142.862 71.1141 146.996 73.2474 149.662 73.9141C152.329 74.7141 153.396 75.2474 151.929 75.3807C147.529 75.6474 136.462 82.5807 133.929 86.7141C132.462 88.9807 130.729 93.3807 129.796 96.5807C128.596 101.381 127.929 102.047 126.462 100.847C125.396 99.9141 124.196 97.9141 123.662 96.4474C121.796 90.1807 112.862 80.7141 97.3956 68.3141C88.1956 60.8474 86.0622 51.5141 91.3956 40.7141C96.1956 30.9807 95.3956 24.7141 87.3956 8.44741C86.1956 6.04741 97.3956 11.9141 101.262 15.6474ZM168.462 67.5141C169.529 74.5807 168.729 75.5141 161.796 75.5141C154.462 75.5141 153.396 74.1807 158.462 71.5141C160.329 70.5807 162.729 68.3141 163.929 66.4474C166.062 63.2474 167.929 63.6474 168.462 67.5141Z" fill="url(#paint0_linear_1120_2271)"/>
<path d="M101.262 15.6474C103.662 17.9141 106.996 22.5807 108.996 26.0474C112.196 32.0474 112.329 33.5141 112.196 48.3141C111.929 65.3807 113.396 71.1141 119.262 74.3141C121.662 75.5141 122.596 75.2474 124.729 73.2474C126.996 70.8474 127.129 69.7807 126.062 63.5141C124.462 54.8474 125.262 52.0474 132.862 39.7807C140.862 26.8474 142.862 30.7141 136.862 47.1141C133.662 55.9141 135.129 64.5807 140.462 69.1141C142.862 71.1141 146.996 73.2474 149.662 73.9141C152.329 74.7141 153.396 75.2474 151.929 75.3807C147.529 75.6474 136.462 82.5807 133.929 86.7141C132.462 88.9807 130.729 93.3807 129.796 96.5807C128.596 101.381 127.929 102.047 126.462 100.847C125.396 99.9141 124.196 97.9141 123.662 96.4474C121.796 90.1807 112.862 80.7141 97.3956 68.3141C88.1956 60.8474 86.0622 51.5141 91.3956 40.7141C96.1956 30.9807 95.3956 24.7141 87.3956 8.44741C86.1956 6.04741 97.3956 11.9141 101.262 15.6474Z" fill="url(#paint1_linear_1120_2271)"/>
<path d="M168.462 67.5141C169.529 74.5807 168.729 75.5141 161.796 75.5141C154.462 75.5141 153.396 74.1807 158.462 71.5141C160.329 70.5807 162.729 68.3141 163.929 66.4474C166.062 63.2474 167.929 63.6474 168.462 67.5141Z" fill="url(#paint2_linear_1120_2271)"/>
<path d="M68.0628 42.0474C59.6628 51.1141 56.5961 58.0474 56.8628 66.5807C57.1294 70.7141 56.8628 74.1807 56.3294 74.1807C55.9294 74.1807 52.9961 72.3141 49.9294 70.1807C43.5294 65.5141 41.7961 61.9141 41.7961 53.1141L41.6628 46.8474L38.4628 50.8474C34.1961 56.0474 31.6628 63.7807 31.2628 72.8474L30.9961 80.1807L40.7294 79.7807C48.7294 79.5141 51.5294 79.9141 56.4628 82.4474C64.9961 86.8474 68.7294 92.9807 68.1961 101.914L67.7961 108.847H74.7294C80.3294 108.847 82.3294 108.181 85.1294 105.514C91.2628 99.2474 89.6628 92.3141 78.5961 76.1807C73.2628 68.4474 73.1294 67.7807 73.1294 57.5141C73.1294 51.6474 73.6628 44.5807 74.3294 41.7807C75.7961 35.3807 74.1961 35.5141 68.0628 42.0474ZM67.2628 55.7807C67.3961 57.5141 67.3961 59.2474 67.2628 59.7807C66.8628 62.8474 71.6628 73.6474 76.8628 81.5141C85.3961 94.1807 85.3961 103.514 76.8628 103.514C74.4628 103.514 73.7961 102.581 72.9961 98.4474C71.7961 91.3807 67.6628 84.5807 62.4628 80.9807C58.7294 78.4474 58.0628 77.3807 59.1294 75.5141C59.9294 74.1807 60.4628 70.8474 60.4628 68.3141C60.4628 63.1141 64.0628 52.8474 65.9294 52.8474C66.5961 52.8474 67.2628 54.1807 67.2628 55.7807ZM42.1961 68.0474C46.9961 74.1807 46.7294 75.5141 41.1294 75.5141C36.4628 75.5141 36.4628 75.5141 36.4628 69.5141C36.4628 66.1807 36.8628 63.5141 37.5294 63.5141C38.0628 63.5141 40.0628 65.6474 42.1961 68.0474Z" fill="url(#paint3_linear_1120_2271)"/>
<path d="M42.1961 68.0474C46.9961 74.1807 46.7294 75.5141 41.1294 75.5141C36.4628 75.5141 36.4628 75.5141 36.4628 69.5141C36.4628 66.1807 36.8628 63.5141 37.5294 63.5141C38.0628 63.5141 40.0628 65.6474 42.1961 68.0474Z" fill="url(#paint4_linear_1120_2271)"/>
<path d="M67.2628 55.7807C67.3961 57.5141 67.3961 59.2474 67.2628 59.7807C66.8628 62.8474 71.6628 73.6474 76.8628 81.5141C85.3961 94.1807 85.3961 103.514 76.8628 103.514C74.4628 103.514 73.7961 102.581 72.9961 98.4474C71.7961 91.3807 67.6628 84.5807 62.4628 80.9807C58.7294 78.4474 58.0628 77.3807 59.1294 75.5141C59.9294 74.1807 60.4628 70.8474 60.4628 68.3141C60.4628 63.1141 64.0628 52.8474 65.9294 52.8474C66.5961 52.8474 67.2628 54.1807 67.2628 55.7807Z" fill="url(#paint5_linear_1120_2271)"/>
<path d="M29.3956 88.2675C28.1956 89.7342 27.6623 92.0008 28.0623 94.2675C28.729 97.7342 28.5956 97.8675 21.6623 98.2675L14.4623 98.6675L14.0623 110.934C13.7956 118.934 14 117.001 13.7956 117.501L9.2623 116.134C2.4623 114.401 -0.871032 118.267 0.195634 126.401C0.862301 132.267 4.0623 134.534 9.92897 133.334L13.7956 132.401V141.067C13.7956 151.334 15.3956 153.201 23.129 152.401C28.4623 151.867 28.4623 151.867 28.1956 156.401C27.7956 162.534 30.9956 164.667 40.5956 164.667C48.1956 164.667 53.529 162.134 51.7956 159.201C51.2623 158.534 52.729 158.001 54.8623 158.001C60.9956 158.001 62.1956 155.467 61.6623 143.734L61.129 133.334H101.396H141.662L142.062 145.334L142.462 157.334L146.462 157.734C149.129 158.001 150.996 159.201 151.796 161.067C152.996 163.601 154.329 164.001 161.662 164.401C171.396 164.801 175.129 162.667 175.129 156.401C175.129 152.801 175.396 152.667 180.996 152.667C189.662 152.667 191.662 150.134 190.729 140.267L190.062 132.401L194.729 133.334C200.996 134.534 204.462 131.334 204.462 124.534C204.462 118.134 200.862 115.201 194.329 116.267L189.929 117.067L190.729 110.401C191.796 100.401 190.062 98.0008 181.396 98.0008H174.329L174.862 93.6008C175.662 87.2008 173.129 85.8675 161.529 86.2675C152.596 86.6675 151.796 86.9341 151.396 89.6008C150.996 92.0008 150.062 92.6675 147.129 92.6675C144.996 92.6675 142.862 93.3342 142.329 94.1342C141.796 95.0675 141.529 100.401 141.662 106.134L141.929 116.667H101.529H61.129V105.067V93.3342L56.0623 92.9342C52.4623 92.6675 51.129 92.0008 51.529 90.8008C52.8623 87.4675 49.2623 86.0008 40.4623 86.0008C33.6623 86.0008 30.9956 86.5342 29.3956 88.2675Z" fill="url(#paint6_linear_1120_2271)"/>
<path d="M68.4621 150.581C68.4621 159.514 64.3288 166.047 58.0621 166.981C54.8621 167.514 55.2621 168.047 61.2621 172.714C74.1955 182.581 94.4621 187.514 111.529 184.847C121.529 183.381 137.262 176.714 142.995 171.647C144.729 170.181 146.729 168.847 147.395 168.847C148.062 168.847 148.195 168.181 147.795 167.514C147.395 166.714 145.529 166.181 143.795 166.181C138.729 166.181 134.462 158.981 134.462 150.447C134.462 146.714 134.062 143.514 133.529 143.514C131.529 143.514 127.129 148.847 125.129 153.781C123.929 156.581 121.795 160.181 120.195 161.781C114.195 168.181 99.9288 169.781 89.6621 165.247C84.0621 162.714 77.7955 156.314 77.7955 153.114C77.7955 151.247 71.2621 143.514 69.6621 143.514C68.9955 143.514 68.4621 146.714 68.4621 150.581ZM89.1288 169.647C100.995 174.581 118.195 170.981 124.595 162.314C127.529 158.447 131.129 156.714 131.129 159.381C131.129 160.047 132.729 162.447 134.595 164.714C136.462 166.981 137.662 169.381 137.129 170.181C136.062 171.914 123.529 177.647 116.595 179.514C108.595 181.647 94.4621 181.381 85.3955 178.981C77.2621 176.714 67.7955 172.447 66.5955 170.314C66.0621 169.647 67.3955 166.314 69.3955 163.114L73.1288 157.114L78.4621 162.181C81.3955 165.114 86.1955 168.314 89.1288 169.647Z" fill="url(#paint7_linear_1120_2271)"/>
<path d="M89.1288 169.647C100.995 174.581 118.195 170.981 124.595 162.314C127.529 158.447 131.129 156.714 131.129 159.381C131.129 160.047 132.729 162.447 134.595 164.714C136.462 166.981 137.662 169.381 137.129 170.181C136.062 171.914 123.529 177.647 116.595 179.514C108.595 181.647 94.4621 181.381 85.3955 178.981C77.2621 176.714 67.7955 172.447 66.5955 170.314C66.0621 169.647 67.3955 166.314 69.3955 163.114L73.1288 157.114L78.4621 162.181C81.3955 165.114 86.1955 168.314 89.1288 169.647Z" fill="url(#paint8_linear_1120_2271)"/>
<defs>
<linearGradient id="paint0_linear_1120_2271" x1="122.969" y1="108.847" x2="122.969" y2="-2.28882e-05" gradientUnits="userSpaceOnUse">
<stop stop-color="#9B1515"/>
<stop offset="0.505208" stop-color="#D73030"/>
<stop offset="1" stop-color="#D76627"/>
</linearGradient>
<linearGradient id="paint1_linear_1120_2271" x1="122.969" y1="108.847" x2="122.969" y2="-2.28882e-05" gradientUnits="userSpaceOnUse">
<stop stop-color="#9B1515"/>
<stop offset="0.505208" stop-color="#D73030"/>
<stop offset="1" stop-color="#D76627"/>
</linearGradient>
<linearGradient id="paint2_linear_1120_2271" x1="122.969" y1="108.847" x2="122.969" y2="-2.28882e-05" gradientUnits="userSpaceOnUse">
<stop stop-color="#9B1515"/>
<stop offset="0.505208" stop-color="#D73030"/>
<stop offset="1" stop-color="#D76627"/>
</linearGradient>
<linearGradient id="paint3_linear_1120_2271" x1="59.8362" y1="108.847" x2="59.8362" y2="37.0629" gradientUnits="userSpaceOnUse">
<stop stop-color="#9B1515"/>
<stop offset="0.505208" stop-color="#D73030"/>
<stop offset="1" stop-color="#D76627"/>
</linearGradient>
<linearGradient id="paint4_linear_1120_2271" x1="59.8362" y1="108.847" x2="59.8362" y2="37.0629" gradientUnits="userSpaceOnUse">
<stop stop-color="#9B1515"/>
<stop offset="0.505208" stop-color="#D73030"/>
<stop offset="1" stop-color="#D76627"/>
</linearGradient>
<linearGradient id="paint5_linear_1120_2271" x1="59.8362" y1="108.847" x2="59.8362" y2="37.0629" gradientUnits="userSpaceOnUse">
<stop stop-color="#9B1515"/>
<stop offset="0.505208" stop-color="#D73030"/>
<stop offset="1" stop-color="#D76627"/>
</linearGradient>
<linearGradient id="paint6_linear_1120_2271" x1="102.231" y1="164.667" x2="102.231" y2="86.0008" gradientUnits="userSpaceOnUse">
<stop stop-color="#9B1515"/>
<stop offset="0.505208" stop-color="#D73030"/>
<stop offset="1" stop-color="#D76627"/>
</linearGradient>
<linearGradient id="paint7_linear_1120_2271" x1="102.049" y1="185.564" x2="102.049" y2="143.514" gradientUnits="userSpaceOnUse">
<stop stop-color="#9B1515"/>
<stop offset="0.505208" stop-color="#D73030"/>
<stop offset="1" stop-color="#D76627"/>
</linearGradient>
<linearGradient id="paint8_linear_1120_2271" x1="102.049" y1="185.564" x2="102.049" y2="143.514" gradientUnits="userSpaceOnUse">
<stop stop-color="#9B1515"/>
<stop offset="0.505208" stop-color="#D73030"/>
<stop offset="1" stop-color="#D76627"/>
</linearGradient>
</defs>
</svg>
